<?xml version="1.0" encoding="UTF-8"?><svg id="ICONS" xmlns="http://www.w3.org/2000/svg" viewBox="0 0 80 80"><path d="M3.5,54.67c0,1.38,1.12,2.5,2.5,2.5h42.9l16.34,17.19c1.22,1.29,2.87,2.02,4.65,2.05.03,0,.07,0,.1,0,1.74,0,3.37-.68,4.61-1.91,1.26-1.26,1.94-2.93,1.91-4.71-.03-1.78-.75-3.43-2.04-4.64l-17.31-16.45V6.02c0-1.38-1.12-2.5-2.5-2.5H6c-1.38,0-2.5,1.12-2.5,2.5v48.65ZM73.51,69.85c.01.96-.35,1.86-1.03,2.54-.68.68-1.58,1.07-2.54,1.03-.96-.01-1.85-.41-2.51-1.11l-21.19-22.29c-.48-.5-1.13-.77-1.81-.77-.29,0-.58.05-.86.15-3.56,1.27-7.58.37-10.24-2.3-1.71-1.71-2.71-3.97-2.85-6.36l3.92,3.92c.97.97,2.56.97,3.54,0l6.83-6.83c.47-.47.73-1.1.73-1.77s-.26-1.3-.73-1.77l-3.92-3.92c2.38.14,4.65,1.15,6.36,2.85,2.67,2.67,3.57,6.69,2.3,10.24-.34.94-.1,1.99.62,2.67l22.3,21.19c.7.66,1.09,1.55,1.11,2.51ZM6.5,6.52h47.65v39.33l-1.74-1.66c1.51-4.57.31-9.68-3.1-13.09-2.59-2.59-6.18-3.96-9.83-3.73-.94.06-1.72.62-2.1,1.47h-7.94c-.67-2.71-3.12-4.72-6.03-4.72s-5.36,2.01-6.03,4.72h-4.19v3h4.19c.67,2.71,3.12,4.72,6.03,4.72s5.36-2.01,6.03-4.72h8.62l4.21,4.21-6.12,6.12-4.41-4.41c-.71-.71-1.73-.92-2.66-.57-.93.35-1.55,1.19-1.61,2.18-.04.71,0,1.42.07,2.12h-14.35v3h15.03c.63,1.75,1.64,3.37,2.98,4.71,3.41,3.41,8.52,4.61,13.09,3.1l1.76,1.85H6.5V6.52ZM26.63,30.35c0,1.78-1.45,3.22-3.22,3.22s-3.22-1.45-3.22-3.22,1.45-3.22,3.22-3.22,3.22,1.45,3.22,3.22Z"/><path d="M36.5,23.91c2.91,0,5.36-2.01,6.03-4.72h5.09v-3h-5.09c-.67-2.71-3.12-4.72-6.03-4.72s-5.36,2.01-6.03,4.72H13.19v3h17.28c.67,2.71,3.12,4.72,6.03,4.72ZM36.5,14.46c1.78,0,3.22,1.45,3.22,3.22s-1.45,3.22-3.22,3.22-3.22-1.45-3.22-3.22,1.45-3.22,3.22-3.22Z"/></svg>