<svg xmlns="http://www.w3.org/2000/svg" id="ICONS" viewBox="0 0 80 80"><path d="M11.82,6.66v59.04c0,1.38,1.12,2.5,2.5,2.5h58.97l-7.71,7.76,2.13,2.12,9.54-9.59c.97-.98.97-2.56,0-3.54l-9.56-9.61-2.13,2.12,7.71,7.75H14.82v-27.93h11.6c1.1,0,2.09-.74,2.41-1.86l2.92-11.73,5.38,22.05.03.1c.34,1.06,1.34,1.79,2.44,1.74,1.12-.03,2.06-.77,2.37-1.92l7.49-35.08,7.68,42.83.03.15c.3,1.05,1.19,1.76,2.28,1.81.04,0,.08,0,.13,0,1.04,0,1.94-.61,2.32-1.59l5.03-16.5h11.07v-3h-11.45c-1.03,0-1.94.62-2.32,1.58l-4.53,14.85-7.76-43.29-.03-.15c-.31-1.09-1.26-1.8-2.42-1.81-1.14,0-2.1.75-2.41,1.92l-7.56,35.44-5.34-21.89-.03-.1c-.33-1.04-1.29-1.74-2.38-1.74-.01,0-.02,0-.03,0-1.11.01-2.06.74-2.38,1.86l-3.31,13.32h-11.21V6.64l7.75,7.71,2.12-2.13L15.1,2.69c-.97-.97-2.56-.97-3.53,0L1.95,12.25l2.12,2.13,7.75-7.71Z" fill="#ffffff"/></svg>